<?xml version="1.0" encoding="UTF-8" standalone="no"?>
<svg
   xmlns:dc="http://purl.org/dc/elements/1.1/"
   xmlns:cc="http://creativecommons.org/ns#"
   xmlns:rdf="http://www.w3.org/1999/02/22-rdf-syntax-ns#"
   xmlns:svg="http://www.w3.org/2000/svg"
   xmlns="http://www.w3.org/2000/svg"
   xmlns:xlink="http://www.w3.org/1999/xlink"
   version="1.1"
   id="svg3732"
   viewBox="0 0 343 340"
   height="340pt"
   width="343pt">
  <defs
     id="defs3734">
    <linearGradient
       id="linearGradient6255">
      <stop
         id="stop6257"
         offset="0"
         style="stop-color:#00ff00;stop-opacity:1;" />
      <stop
         id="stop6259"
         offset="1"
         style="stop-color:#00ff00;stop-opacity:0;" />
    </linearGradient>
    <linearGradient
       gradientUnits="userSpaceOnUse"
       y2="32.918846"
       x2="58.586291"
       y1="32.918846"
       x1="4.9420193"
       id="linearGradient6261"
       xlink:href="#linearGradient6255" />
  </defs>
  <metadata
     id="metadata3738">
    <rdf:RDF>
      <cc:Work
         rdf:about="">
        <dc:format>image/svg+xml</dc:format>
        <dc:type
           rdf:resource="http://purl.org/dc/dcmitype/StillImage" />
        <dc:title></dc:title>
      </cc:Work>
    </rdf:RDF>
  </metadata>
  <g
     id="layer1">
    <g
       style="fill:url(#linearGradient6261);fill-opacity:1;opacity:1"
       id="layer1-3"
       transform="matrix(6.0185441,0,0,6.4240273,-21.17397,-49.97157)">
      <path
         style="display:inline;fill:url(#linearGradient6261);fill-rule:evenodd;stroke:#000000;stroke-width:0.25739098px;stroke-linecap:butt;stroke-linejoin:miter;stroke-opacity:1;fill-opacity:1"
         d="m 36.726268,11.01072 c 0,0 -0.449097,0.923577 -6.959735,12.081581 0.183305,0.02391 0.365408,0.055 0.548441,0.08085 0.64668,0.117925 1.301029,0.139639 1.958561,0.126233 0.215518,-0.0044 0.431094,-0.03545 0.64626,-0.02365 0.201658,0.01106 1.442126,0.186993 1.662424,0.21748 0.225768,0.01902 0.452944,0.02723 0.677264,0.05673 0.297838,0.03918 1.087984,0.202203 1.427763,0.231665 0.249398,0.02161 0.502147,0.0036 0.751564,0.02506 0.546435,0.04696 1.086441,0.13943 1.630889,0.201879 0.673871,0.0291 0.963567,0.0189 1.650666,0.15271 0.06888,0.01341 0.245972,0.06143 0.37685,0.09503 0.264893,-0.02897 0.528123,-0.05177 0.943468,-0.06808 0.507805,-0.01995 0.653498,-0.0167 0.732322,-0.0123 L 36.726268,11.0107 Z m -7.644483,13.25551 c -0.560984,0.960428 -0.857922,1.475546 -1.507944,2.586143 0.173484,-0.02613 0.363879,-0.05909 0.683147,-0.13569 0.223256,-0.05356 0.437981,-0.131656 0.656951,-0.197626 0.645233,-0.291688 0.448191,-0.238523 1.265796,-0.418887 0.261821,-0.05776 0.52428,-0.114853 0.79112,-0.150347 0.883676,-0.11755 0.84219,-0.01605 1.628748,-0.191478 0.221747,-0.04946 0.434711,-0.125489 0.652143,-0.188171 0.333718,-0.05539 0.668641,-0.105334 1.001196,-0.165945 0.265636,-0.04842 0.526434,-0.117775 0.793261,-0.160749 0.278634,-0.04488 0.562377,-0.06232 0.841902,-0.102593 0.249769,-0.03599 0.495574,-0.09215 0.745687,-0.126236 0.06188,-0.0084 0.06953,-0.0075 0.121875,-0.01418 -0.100082,-0.0032 -0.200286,-0.0048 -0.299877,-0.0137 -0.702113,-0.06274 -1.374262,-0.294377 -2.087389,-0.286035 -0.26739,-0.037 -0.534783,-0.07163 -0.80181,-0.110634 -0.197439,-0.02884 -0.391447,-0.08211 -0.591205,-0.09267 -0.232454,-0.0123 -0.465284,0.02077 -0.69811,0.02459 -0.73681,0.0121 -1.471084,-0.01508 -2.195898,-0.143728 -0.173208,-0.02891 -0.343949,-0.07372 -0.519576,-0.08699 -0.232569,-0.01757 -0.372458,-0.02329 -0.480017,-0.02506 z m 11.936853,1.231137 c -0.167715,0.02004 -0.309935,0.0386 -0.586927,0.06572 -1.328792,0.130069 -0.44842,-0.02237 -1.796594,0.277996 -0.32755,0.09859 -0.646815,0.223225 -0.983024,0.295493 -0.248047,0.05332 -0.507842,0.04449 -0.760117,0.07896 -0.274909,0.03755 -0.545379,0.09789 -0.819989,0.137106 -0.238173,0.03401 -0.480576,0.04431 -0.717888,0.08274 -0.286937,0.04646 -0.568697,0.114367 -0.853129,0.171623 l -0.831747,0.12907 c -0.800155,0.218859 -0.816803,0.256741 -1.637303,0.351752 -0.256044,0.02965 -0.516367,0.02415 -0.771878,0.05721 -7.75e-4,1.24e-4 -1.118825,0.205297 -1.232651,0.243485 -0.23413,0.07855 -0.450391,0.193574 -0.675661,0.290291 -0.267706,0.07778 -0.530879,0.168014 -0.802884,0.233084 -1.830241,0.437823 0.04269,-0.07357 -1.546963,0.279417 -0.08555,0.019 -0.168903,0.04442 -0.252839,0.06855 -0.01995,0.03405 -0.05524,0.09376 -0.07537,0.128126 l 0.07003,0 c 0.378632,0 0.754102,-0.04715 1.104361,0.125761 0.01283,0.0063 0.02338,0.01528 0.03528,0.02268 0.04554,-0.04735 0.151097,-0.0053 0.225577,-0.0095 0.07115,-0.0039 0.555259,-0.03091 0.619534,-0.02411 0.285219,0.03021 0.430562,0.0842 0.676194,0.160746 0.330432,0.01368 0.66092,-0.0022 0.991043,-0.01323 0.167167,-0.0055 0.335924,-0.03477 0.501933,-0.01656 0.475414,0.05216 0.628541,0.137102 1.019908,0.292656 0.612422,0.07981 1.237435,-0.118407 1.853789,-0.06336 0.258958,0.02314 0.510366,0.09142 0.765465,0.137106 0.326438,0.09261 0.518248,0.171759 0.846181,0.19148 0.122953,0.0074 0.247346,-0.01668 0.369902,-0.0052 0.193339,0.01811 1.011379,0.165111 1.236929,0.191006 0.173117,0.01987 0.347701,0.02456 0.521714,0.03688 0.880314,-0.0044 0.439037,-0.03733 1.341699,0.108269 0.20106,0.03243 0.40472,0.05344 0.602965,0.09739 0.236521,0.05244 0.462045,0.138832 0.698644,0.191005 1.702332,0.37538 -0.42204,-0.192678 1.278626,0.282254 0.172145,0.02577 0.347013,0.04 0.516367,0.07754 0.192653,0.04269 0.373947,0.119992 0.566615,0.16264 0.157171,0.03478 0.321725,0.03848 0.480016,0.06902 0.227123,0.04384 0.448182,0.109581 0.675127,0.154128 1.306471,0.256448 -0.249617,-0.116124 1.201651,0.25105 0.355157,0.02772 0.699013,0.09855 1.034876,0.193371 L 43.558253,25.88499 c -0.254336,-0.02713 -0.508625,-0.0556 -0.763325,-0.0799 -0.270475,-0.0258 -0.543917,-0.02843 -0.81197,-0.0695 -0.455684,-0.06982 -0.66912,-0.150967 -0.964314,-0.238286 z m -13.006473,3.140247 c 0.04253,0.04047 0.08384,0.08248 0.131498,0.11725 0.0443,0.03232 -0.07836,-0.07401 -0.117597,-0.111104 -0.0033,-0.0022 -0.01,-0.004 -0.01391,-0.0061 z m -2.046759,0.955975 c -1.660392,2.831344 -3.674229,6.257817 -5.727618,9.750744 0.663441,-0.116091 0.804767,-0.111532 1.485493,-0.153181 0.287751,-0.04865 0.864204,-0.151204 1.146592,-0.176822 0.25325,-0.02297 0.509488,-0.01202 0.762258,-0.03876 0.401294,-0.04253 0.789736,-0.158344 1.190959,-0.201408 0.252115,-0.02703 0.506287,-0.03286 0.759583,-0.04915 0.755911,-0.12178 1.510681,-0.228647 2.280356,-0.245375 0.23636,-0.005 0.473451,0.02361 0.709337,0.0095 0.197043,-0.01181 0.389038,-0.06052 0.584255,-0.08699 0.263322,-0.0357 0.527382,-0.06657 0.791121,-0.09976 0.808932,-0.06017 0.714979,-0.07041 1.540551,-0.06052 0.272944,0.0036 0.545762,0.03627 0.818382,0.02411 0.244674,-0.01088 0.485027,-0.06223 0.72751,-0.09314 1.09642,-0.139647 0.566584,-0.08389 1.597745,-0.172092 0.56099,-0.0564 1.122762,0.03848 1.683273,0.01607 0.119333,-0.005 1.400148,-0.186394 1.484423,-0.195263 0.792861,-0.08347 0.901213,-0.06515 1.704656,-0.07281 1.711636,0.0778 3.424489,0.06628 5.13748,0.05434 1.150578,-0.005 2.300945,-0.0043 3.451536,-0.0021 0.06805,-0.0014 0.136333,-7.11e-4 0.204199,-0.005 0.236182,-0.0128 0.471524,-0.03393 0.707197,-0.05291 L 46.6479,32.612393 c -0.135128,-0.0593 -0.264651,-0.129993 -0.401978,-0.185334 -0.568375,-0.229056 -1.131842,-0.397544 -1.760245,-0.445836 -1.029553,-0.273073 0.06548,-1.6e-4 -1.163697,-0.241595 -0.191564,-0.03763 -0.377284,-0.09533 -0.568754,-0.133325 -0.225147,-0.04467 -0.456083,-0.06491 -0.679936,-0.114415 -0.127203,-0.02813 -0.243216,-0.09014 -0.370438,-0.118196 -0.229275,-0.05056 -0.463856,-0.07813 -0.695974,-0.11725 -1.076422,-0.32032 0.267861,0.05984 -1.269538,-0.27989 -0.180445,-0.03987 -0.349807,-0.113812 -0.530264,-0.153656 -0.206479,-0.04559 -0.419588,-0.06439 -0.628086,-0.102121 -0.770315,-0.139392 -0.08653,-0.08623 -1.184547,-0.08794 -0.697011,-0.05517 -0.565921,-0.02891 -1.232652,-0.142783 -0.141391,-0.02415 -0.279072,-0.06757 -0.422289,-0.08084 -0.19922,-0.01847 -0.401569,0.0045 -0.600824,-0.0137 -0.404813,-0.03698 -0.553983,-0.09772 -0.917809,-0.204719 -0.134396,-0.03515 -0.263745,-0.0918 -0.403046,-0.10543 -0.172703,-0.0169 -0.347644,0.0073 -0.521176,0.01513 -0.656468,0.02979 -1.329168,0.151308 -1.963906,-0.06619 -0.07026,-0.03092 -0.141109,-0.06043 -0.210609,-0.09266 -0.05885,-0.02729 -0.108259,-0.07877 -0.174261,-0.08558 -0.16588,-0.01709 -0.333442,0.01073 -0.500333,0.01607 -0.50198,0.01612 -1.0111,0.0523 -1.504736,-0.05579 -0.06179,-0.01949 -0.12847,-0.02912 -0.184951,-0.05862 -0.01109,-0.0058 0.02351,-0.03138 0.0107,-0.03262 -0.505672,-0.0491 -1.006268,0.158377 -1.509548,-0.0643 -0.02354,-0.01832 -0.05124,-0.034 -0.07804,-0.05011 -0.306908,4.75e-4 -0.61432,-0.0074 -0.921015,0 -0.107684,0.0026 -0.203797,-0.0048 -0.294532,-0.01701 z m 1.316577,0.01702 c 0.07006,0.0048 0.163839,-0.0012 0.118667,0 -0.03952,9.96e-4 -0.07914,-4.75e-4 -0.118667,0 z m 12.234058,9.360694 c -0.68429,0.0036 -0.828147,-0.01301 -1.50634,0.0586 -0.575327,0.06081 -1.157073,0.184588 -1.737259,0.208968 -0.502494,0.02112 -1.005969,-0.06358 -1.509014,-0.02126 -1.239616,0.103624 -0.115645,-1.71e-4 -1.549637,0.16737 -0.31741,0.03713 -0.633888,0.08785 -0.95362,0.102592 -0.255436,0.01181 -0.510787,-0.0192 -0.766533,-0.02318 -0.734473,-0.01152 -0.621887,-0.0036 -1.350788,0.04872 -0.06381,0.008 -1.551906,0.195412 -1.594538,0.198094 -0.202286,0.01273 -0.405544,-0.01408 -0.608309,-0.01088 -0.764889,0.01209 -1.511223,0.136453 -2.26432,0.244429 -0.201775,0.01067 -0.404948,0.01081 -0.605637,0.03215 -0.459137,0.04886 -0.905603,0.170044 -1.364683,0.219374 -0.20488,0.02198 -0.413645,0.0073 -0.618999,0.02553 -0.183731,0.01636 -1.147919,0.170101 -1.27328,0.189588 -0.572279,0.03037 -0.716413,0.02276 -1.327269,0.132854 -0.250975,0.04523 -0.494683,0.119235 -0.744615,0.168785 -0.111798,0.02219 -0.225238,0.03713 -0.338366,0.05341 -0.832365,1.41522 -1.291836,2.202774 -2.225298,3.787959 l 0.07217,-7.11e-4 c 0.10899,-0.05242 0.233142,-0.09997 0.434046,-0.138999 0.227537,-0.04417 0.465115,-0.02127 0.697044,-0.04061 0.08923,-0.0075 0.176762,-0.02646 0.265133,-0.03976 0.07483,-0.03954 0.143704,-0.08975 0.224506,-0.118673 0.190663,-0.06828 0.399324,-0.09451 0.58586,-0.171153 0.156936,-0.06451 0.288183,-0.169383 0.436186,-0.248683 0.13204,-0.07077 0.801269,-0.408584 0.952018,-0.455289 0.21825,-0.06764 0.450073,-0.09432 0.675127,-0.141368 0.829146,-0.07939 1.601547,-0.369098 2.396885,-0.569702 0.304399,-0.07678 0.976713,-0.1985 1.237999,-0.248213 0.498886,-0.05889 0.96752,-0.08882 1.445935,-0.229779 0.160911,-0.04744 0.302426,-0.138245 0.462915,-0.18675 0.754064,-0.227936 1.546635,-0.344675 2.332205,-0.441108 0.183156,-0.03912 0.364331,-0.0869 0.549508,-0.11772 0.915752,-0.152398 0.545554,-0.02439 1.457698,-0.231194 1.717449,-0.389324 -0.05351,-0.01294 1.475867,-0.462857 0.270907,-0.07969 0.552763,-0.127001 0.829075,-0.190533 l 0.796469,-0.152235 c 0.265034,-0.06095 0.528131,-0.130166 0.795398,-0.182974 0.252029,-0.04978 0.508727,-0.07853 0.761721,-0.124341 0.230197,-0.04168 0.455328,-0.105608 0.687421,-0.138053 3.24152,-0.453149 -0.911692,0.219416 1.769333,-0.226465 0.191257,-0.06692 1.235408,-0.43332 1.316578,-0.45435 0.27297,-0.0707 0.744131,-0.150621 1.193098,-0.224573 -0.504065,-0.0097 -1.007821,-0.02354 -1.511685,-0.0468 z m 8.382686,0.05156 c -0.113624,-7.1e-5 -0.227072,4.77e-4 -0.339969,0.01088 -1.281161,0.118651 -2.45536,0.655161 -3.74019,0.764972 -1.395576,0.191046 -0.217867,0.0165 -1.830805,0.303524 -0.02376,0.0043 -1.56443,0.257025 -1.654406,0.280367 -0.533876,0.138488 -1.021181,0.398187 -1.563535,0.516753 l -0.884133,0.143252 c -0.277618,0.02461 -0.557269,0.03499 -0.832816,0.07375 -0.250924,0.03528 -0.49458,0.103154 -0.743549,0.147989 -0.219999,0.03961 -0.443751,0.06152 -0.662831,0.104954 -0.285858,0.05668 -0.567377,0.129902 -0.850991,0.194786 l -0.751566,0.14326 c -0.211517,0.04452 -0.428854,0.07226 -0.635037,0.133324 -1.576047,0.46679 -0.02745,0.152441 -1.72336,0.530464 -1.209696,0.269642 -0.399817,0.05505 -1.424022,0.225042 -0.229247,0.03805 -0.454252,0.09266 -0.681539,0.139 -0.887436,0.101781 -0.481175,0.03456 -1.420277,0.233085 -0.183381,0.03876 -0.370436,0.06557 -0.548975,0.119142 -0.237135,0.07119 -0.455752,0.187163 -0.69437,0.254365 -0.533408,0.150216 -0.924375,0.172861 -1.471593,0.234494 -0.03109,0.0057 -0.930295,0.172576 -1.103831,0.216543 -0.84687,0.214558 -1.672733,0.516489 -2.554574,0.606109 -0.104685,0.01031 -0.213998,7.11e-4 -0.313778,0.03072 -0.073,0.02183 -0.14216,0.05156 -0.210075,0.08415 l 30.712104,-0.304927 -2.381384,-5.183628 c -0.564844,-4.76e-4 -1.129658,-0.0014 -1.694498,-0.0021 z"
         id="path3336" />
      <path
         style="display:inline;fill:url(#linearGradient6261);fill-rule:evenodd;stroke:#000000;stroke-width:0.25739098px;stroke-linecap:butt;stroke-linejoin:miter;stroke-opacity:1;fill-opacity:1"
         d="m 14.787065,14.45024 0.711476,15.9277 c 0.165484,-0.07166 0.33062,-0.143933 0.496055,-0.215589 0.190707,-0.08261 0.37282,-0.183 0.571959,-0.248215 0.225281,-0.07378 0.463593,-0.111255 0.69544,-0.166893 0.741449,-0.104931 1.377544,-0.439453 2.020034,-0.759768 0.184847,-0.09215 0.359278,-0.203314 0.554854,-0.276105 0.227197,-0.08457 0.470678,-0.128836 0.70613,-0.19337 0.424027,-0.06543 0.824439,-0.209954 1.241741,-0.297384 0.249155,-0.0522 0.511403,-0.05726 0.754773,-0.127652 0.160751,-0.04649 0.291274,-0.153046 0.443134,-0.2189 0.518585,-0.224883 0.729389,-0.271268 1.17225,-0.38012 l -2.844295,-3.960532 c -0.05401,-0.01627 -0.108645,-0.03048 -0.165175,-0.03594 -0.503855,-0.04868 -1.016985,0.05842 -1.520237,0 -1.356793,-0.157503 -1.368428,-1.222625 0,-1.222625 l 0.7815,0 -5.619639,-7.824615 z m 10.15095,14.133476 c -0.03967,0.0041 -0.07152,0.0078 -0.112788,0.0123 -0.235772,0.05759 -0.47592,0.102149 -0.707198,0.172566 -0.315439,0.09604 -1.085426,0.454691 -1.32406,0.525739 -0.201422,0.05997 -0.420266,0.05766 -0.627019,0.101177 -0.419738,0.08835 -0.82408,0.230356 -1.249757,0.299274 -0.134429,0.02747 -0.275957,0.03476 -0.403046,0.08226 -0.194971,0.07288 -0.369273,0.183903 -0.553786,0.275634 -0.749972,0.372848 -1.505234,0.748957 -2.365348,0.881275 -0.139924,0.02599 -0.285613,0.03344 -0.419615,0.07754 -0.199612,0.06568 -0.382825,0.166315 -0.574096,0.249157 -0.347939,0.150706 -0.696398,0.300422 -1.042893,0.453875 l 0.374181,8.384867 c 0.06064,-0.01422 0.120881,-0.0298 0.182277,-0.04111 0.213023,-0.03947 0.431087,-0.05434 0.643588,-0.09597 0.165728,-0.03243 0.326116,-0.08384 0.489106,-0.125764 l 0.598154,-0.108744 c 0.97661,-0.0591 0.29885,0.01117 1.081914,-0.127648 0.189291,-0.03357 0.381421,-0.05306 0.569821,-0.0903 0.215505,-0.0426 0.424507,-0.11006 0.640914,-0.148928 0.767526,-0.137854 0.866216,-0.125763 1.584917,-0.16973 0.287751,-0.04865 0.864204,-0.151197 1.146592,-0.176822 0.25325,-0.02297 0.509488,-0.01202 0.762258,-0.03876 0.401294,-0.04253 0.789736,-0.158344 1.190959,-0.201408 0.252115,-0.02703 0.506287,-0.03286 0.759583,-0.04915 0.755911,-0.121781 1.510681,-0.228641 2.280356,-0.245375 0.23636,-0.005 0.473451,0.02361 0.709337,0.0095 0.197043,-0.01181 0.389038,-0.06052 0.584255,-0.087 0.263322,-0.0357 0.527382,-0.06657 0.791121,-0.09975 0.808932,-0.06017 0.714979,-0.07041 1.540551,-0.06052 0.13308,0.0014 0.265735,0.01053 0.398768,0.0175 l -6.303317,-8.776894 c -0.236166,-0.117676 -0.353753,-0.299882 -0.347989,-0.484134 l -0.29774,-0.414633 z m 7.800034,10.861325 c -0.158729,0.01913 -0.318014,0.0352 -0.477878,0.04253 -0.255436,0.01181 -0.510787,-0.01913 -0.766533,-0.02318 -0.734473,-0.01152 -0.621887,-0.0036 -1.350788,0.04872 -0.06381,0.008 -1.551906,0.195419 -1.594538,0.198101 -0.202286,0.01273 -0.405544,-0.01408 -0.608309,-0.01088 -0.764889,0.01209 -1.511223,0.136453 -2.26432,0.24443 -0.201775,0.01067 -0.404948,0.01081 -0.605637,0.03215 -0.459137,0.04886 -0.905603,0.170037 -1.364683,0.219374 -0.20488,0.02198 -0.413645,0.0073 -0.618999,0.02553 -0.183731,0.01629 -1.147919,0.170094 -1.27328,0.189581 -0.572279,0.03037 -0.716413,0.02276 -1.327269,0.132854 -0.250975,0.04523 -0.494683,0.119242 -0.744615,0.168785 -0.175201,0.03471 -0.353837,0.05419 -0.530266,0.08369 -0.838186,0.140016 -0.396168,0.103765 -1.091534,0.12954 -2.0012,0.350542 1.350115,-0.247346 -1.135902,0.242537 -0.173932,0.03428 -0.353751,0.04225 -0.528128,0.0747 -0.157079,0.02923 -0.311295,0.0682 -0.466656,0.104015 l 0.166779,3.74163 c 0.173051,-0.06643 0.341921,-0.133636 0.488036,-0.201877 0.463738,-0.216579 0.497303,-0.367299 1.040218,-0.472786 0.227537,-0.04417 0.465115,-0.02126 0.697044,-0.04068 0.08923,-0.0074 0.176762,-0.02646 0.265133,-0.03976 0.07483,-0.03954 0.143704,-0.08975 0.224506,-0.118666 0.190664,-0.06828 0.399324,-0.09451 0.58586,-0.171153 0.156937,-0.06451 0.288183,-0.169382 0.436187,-0.248682 0.132039,-0.07077 0.801268,-0.408577 0.952017,-0.45529 0.21825,-0.06764 0.450073,-0.09432 0.675127,-0.141367 0.829146,-0.07939 1.601547,-0.369098 2.396885,-0.56971 0.304399,-0.07678 0.976713,-0.198499 1.238,-0.248206 0.498885,-0.05889 0.967519,-0.08882 1.445935,-0.229778 0.16091,-0.04744 0.302425,-0.138246 0.462914,-0.18675 0.754064,-0.227937 1.546635,-0.344682 2.332205,-0.441108 0.183156,-0.03912 0.364331,-0.08691 0.549508,-0.117727 0.915752,-0.152399 0.545554,-0.02447 1.457698,-0.231194 1.717449,-0.389318 -0.05351,-0.01294 1.475867,-0.462857 0.215621,-0.06344 0.437951,-0.107208 0.659092,-0.154127 l -0.79914,-1.112471 -5.45e-4,0 z m 1.587056,2.208854 -0.281169,0.05341 c -0.211517,0.04452 -0.428854,0.07226 -0.635037,0.133324 -1.576047,0.466797 -0.02745,0.152448 -1.72336,0.530465 -1.209696,0.269649 -0.399817,0.05505 -1.424022,0.225049 -0.229247,0.03805 -0.454252,0.09265 -0.681539,0.138999 -0.887436,0.101781 -0.481175,0.03464 -1.420277,0.233085 -0.183381,0.03876 -0.370436,0.06557 -0.548975,0.119136 -0.237135,0.07119 -0.455752,0.187162 -0.69437,0.254365 -0.533408,0.150215 -0.924375,0.172867 -1.471593,0.234508 -0.03109,0.0057 -0.930295,0.172561 -1.103831,0.216528 -0.84687,0.214559 -1.672733,0.51649 -2.554574,0.606117 -0.104685,0.01024 -0.213998,7.11e-4 -0.313778,0.03072 -0.14901,0.04452 -0.282799,0.122563 -0.421218,0.188635 -0.22084,0.105423 -1.051784,0.539767 -1.171182,0.589559 -0.136884,0.05711 -0.291412,0.07309 -0.433512,0.11915 -0.204386,0.06621 -0.403462,0.144959 -0.605102,0.217481 l -0.460775,0.05199 c -0.06705,-0.01358 -0.132757,-0.04836 -0.200988,-0.04068 -0.33471,0.03762 -0.72099,0.331461 -0.964312,0.444423 -0.297915,0.138295 -0.652806,0.26824 -1.001733,0.391465 l 0.369903,8.282742 19.62891,-10.392318 -1.887466,-2.628221 z"
         id="path3338" />
      <path
         style="display:inline;fill:url(#linearGradient6261);fill-rule:evenodd;stroke:#000000;stroke-width:0.25739098px;stroke-linecap:butt;stroke-linejoin:miter;stroke-opacity:1;fill-opacity:1"
         d="m 50.45063,14.572692 -6.153646,9.313419 c 0.270209,-0.07125 0.543712,-0.133333 0.864887,-0.178242 0.310307,-0.04338 0.626081,-0.04543 0.938657,-0.07328 0.318774,-0.02841 0.636288,-0.06855 0.955228,-0.0955 0.331374,-0.028 0.665557,-0.03282 0.995853,-0.0695 0.279575,-0.03104 0.554503,-0.08882 0.831745,-0.133325 0.282493,-0.03676 0.563165,-0.08517 0.847249,-0.110632 0.284521,-0.0255 0.57235,-0.01658 0.856867,-0.04207 0.244067,-0.02186 0.483586,-0.0727 0.72698,-0.09976 0.03799,-0.0042 0.07632,-0.0063 0.114392,-0.0099 L 50.45063,14.572726 Z m 1.117727,9.71576 c -0.01616,0.0017 -0.03249,0.0025 -0.04865,0.0043 -0.28754,0.03149 -0.571822,0.08572 -0.860083,0.111579 -0.241837,0.02169 -0.486164,0.0098 -0.728042,0.0312 -0.270381,0.02389 -0.537761,0.06968 -0.806626,0.104485 -0.321748,0.04954 -0.641371,0.11222 -0.965382,0.148455 -0.314787,0.0352 -0.632958,0.03902 -0.948812,0.06572 -0.333532,0.02819 -0.665486,0.07095 -0.999059,0.09881 -0.245777,0.02052 -0.494658,0.01355 -0.738735,0.04633 -0.07792,0.01046 -0.166415,0.02851 -0.25177,0.04444 0.192706,0.03162 0.379134,0.05959 0.544701,0.07706 0.261089,0.02755 0.525958,0.01523 0.78738,0.04019 0.249511,0.02382 0.49521,0.07389 0.743541,0.105904 1.112714,0.143445 0.155498,-0.02249 1.43204,0.229301 0.292947,0.08214 0.587952,0.158527 0.878787,0.246322 0.790004,0.238479 0.879332,0.34234 1.674186,0.430234 0.163043,0.01804 0.328386,0.0086 0.492851,0.01041 l -0.206335,-1.794697 z m -8.55374,1.539865 -2.65988,4.025301 c 1.250551,0.266615 -0.532315,-0.210193 1.078707,0.239705 0.172145,0.02577 0.347013,0.04001 0.516367,0.07754 0.192653,0.04269 0.373948,0.119993 0.566614,0.16264 0.157173,0.03478 0.321725,0.03848 0.480017,0.06902 0.227123,0.04384 0.448182,0.109582 0.675127,0.154129 1.30647,0.256448 -0.249618,-0.116125 1.201652,0.251049 0.66467,0.05186 1.290927,0.248162 1.896019,0.487443 0.223734,0.08847 0.430242,0.21228 0.660692,0.286036 0.188485,0.06032 0.392074,0.07388 0.587465,0.113468 0.230551,0.04671 0.460003,0.09715 0.690093,0.14562 0.471237,0.0386 0.836211,0.04173 1.287713,0.184387 0.722046,0.228145 0.393396,0.273146 1.050373,0.356951 0.167916,0.02142 0.338915,0.01547 0.508351,0.02316 l 0.686882,0.09976 c 0.09352,0.02952 0.188345,0.05618 0.282774,0.08368 l -0.607239,-5.275351 c -0.03014,-0.0022 -0.06018,-0.0055 -0.09034,-0.0076 -0.277087,-0.01844 -0.557161,-0.0024 -0.832279,-0.03688 -0.901886,-0.113203 -1.706539,-0.450662 -2.570614,-0.679869 -1.113391,-0.2283 -0.222983,-0.06653 -1.352393,-0.215588 -0.202129,-0.02667 -0.401386,-0.07224 -0.604566,-0.09172 -0.31136,-0.02984 -0.626165,-0.02228 -0.937051,-0.05579 -0.625792,-0.06745 -1.244698,-0.205566 -1.858066,-0.328586 -0.218762,-0.0229 -0.437607,-0.04602 -0.656419,-0.06855 z m -3.382046,5.117913 -4.651048,7.039318 c 0.444596,-0.0043 0.889625,0.049 1.33368,0.03122 0.119333,-0.005 1.400148,-0.186394 1.484423,-0.195263 0.792861,-0.08347 0.901213,-0.06515 1.704656,-0.07281 1.711636,0.0778 3.424489,0.06628 5.13748,0.05434 1.150578,-0.005 2.300945,-0.0043 3.451536,-0.0021 0.06805,-0.0014 0.136333,-7.11e-4 0.204199,-0.005 0.307045,-0.01664 0.612873,-0.04566 0.91941,-0.06856 0.830116,-0.0014 1.612249,-0.196772 2.394748,-0.416522 0.331857,-0.0932 0.656749,-0.207084 0.993711,-0.28462 0.173736,-0.03997 0.290118,-0.06188 0.418549,-0.08747 L 52.68448,33.986208 c -0.07199,-0.04004 -0.144078,-0.08032 -0.220232,-0.113466 -0.146098,-0.06358 -0.301911,-0.10842 -0.452752,-0.162639 -0.188342,-0.02886 -0.375416,-0.06503 -0.565017,-0.08652 -0.258143,-0.02925 -0.521824,-0.02142 -0.777221,-0.06572 -1.579325,-0.273777 -0.174512,-0.05609 -1.002802,-0.346081 -0.376233,-0.131722 -0.912718,-0.147127 -1.279157,-0.182492 -0.311684,-0.06567 -1.316098,-0.271627 -1.568347,-0.351283 -0.200819,-0.06341 -0.37899,-0.172853 -0.57303,-0.25105 -0.568375,-0.229055 -1.131842,-0.397544 -1.760245,-0.445836 -1.029553,-0.273073 0.06548,-1.6e-4 -1.163697,-0.241594 -0.191564,-0.03763 -0.377284,-0.09534 -0.568754,-0.133326 -0.225147,-0.04467 -0.456083,-0.06491 -0.679936,-0.114415 -0.127203,-0.02813 -0.243216,-0.09014 -0.370438,-0.118196 -0.229275,-0.05056 -0.463856,-0.07813 -0.695974,-0.117251 -1.076422,-0.320319 0.267861,0.05984 -1.269538,-0.279889 -0.03565,-0.0079 -0.06982,-0.02024 -0.104769,-0.03026 z m -0.11653,8.025072 c -0.68429,0.0036 -0.828147,-0.01301 -1.50634,0.0586 -0.575327,0.06081 -1.157073,0.184588 -1.737259,0.208968 -0.502494,0.02112 -1.005969,-0.06358 -1.509014,-0.02126 -0.557486,0.04659 -0.582211,0.04765 -0.631294,0.05391 l -0.893218,1.351702 c 0.156219,-0.03421 0.313107,-0.06636 0.468792,-0.102123 l 0.796469,-0.152243 c 0.265035,-0.06095 0.528131,-0.130166 0.795398,-0.182966 0.252029,-0.04978 0.508727,-0.07853 0.761721,-0.124341 0.230197,-0.04168 0.455329,-0.105615 0.687422,-0.138054 3.241519,-0.453156 -0.911693,0.219416 1.769332,-0.226464 0.191257,-0.06693 1.235408,-0.43332 1.316578,-0.454351 0.272971,-0.07069 0.744132,-0.15062 1.193098,-0.224572 -0.504065,-0.0097 -1.007821,-0.02354 -1.511685,-0.0468 z m 8.382686,0.05156 c -0.113624,-6.4e-5 -0.227072,4.77e-4 -0.339969,0.01088 -1.281161,0.118644 -2.45536,0.655161 -3.74019,0.764965 -1.395576,0.191046 -0.217867,0.0165 -1.830805,0.303531 -0.02376,0.0043 -1.56443,0.257018 -1.654406,0.28036 -0.533876,0.138495 -1.021181,0.398194 -1.563535,0.516753 l -0.884133,0.143259 c -0.277618,0.02461 -0.557269,0.03499 -0.832816,0.07375 -0.250924,0.03528 -0.49458,0.103154 -0.743549,0.147982 -0.219999,0.03961 -0.443751,0.06152 -0.662831,0.104961 -0.285858,0.05668 -0.567377,0.129902 -0.850991,0.194786 l -0.751566,0.14326 c -0.211517,0.04452 -0.428854,0.07226 -0.635037,0.133324 -1.332943,0.394786 -0.536465,0.252565 -1.25243,0.421251 l -1.334751,2.020212 23.637973,5.134931 -1.195232,-10.386166 c -0.191906,-0.0014 -0.383853,-0.0064 -0.575701,-0.0064 -0.878329,1.21e-4 -1.756961,7.11e-4 -2.635295,7.11e-4 -0.718251,-7.1e-5 -1.436481,-0.0014 -2.154736,-0.0028 z"
         id="path3340" />
      <path
         style="display:inline;fill:url(#linearGradient6261);fill-rule:evenodd;stroke:#000000;stroke-width:0.25739098px;stroke-linecap:butt;stroke-linejoin:miter;stroke-opacity:1;fill-opacity:1"
         d="m 5.1107885,27.165358 1.3999637,9.161181 c 0.057931,-0.05107 0.1114943,-0.09902 0.2009895,-0.178237 0.2153491,-0.404111 0.6149001,-0.673511 0.9910394,-0.954084 0.1383181,-0.103176 0.2670351,-0.217695 0.4169433,-0.307315 0.623617,-0.372825 0.3521127,-0.05796 0.5815816,-0.361211 0.368624,-0.288602 0.7523476,-0.561445 1.1075721,-0.863305 0.087054,-0.07398 0.1617291,-0.160174 0.2555099,-0.22741 0.446012,-0.319767 0.571001,-0.343797 1.095812,-0.581054 0.457055,-0.275922 0.568297,-0.316291 0.952018,-0.645354 0.337645,-0.28955 0.226491,-0.279382 0.545233,-0.479406 L 5.1107885,27.165358 Z m 8.8017675,5.322628 c -0.08511,0.03348 -0.170826,0.06567 -0.250701,0.107795 -0.339794,0.179188 -0.32486,0.270952 -0.650003,0.541341 -0.500957,0.416594 -0.642241,0.464916 -1.233722,0.810355 -0.188739,0.08094 -0.553182,0.219772 -0.73553,0.351282 -0.108281,0.07809 -0.195206,0.176473 -0.296135,0.261925 -0.343749,0.291028 -0.710318,0.559148 -1.071225,0.83305 -0.1526645,0.11932 -0.2935219,0.251684 -0.4581001,0.357896 -0.061464,0.03969 -0.1494346,0.0367 -0.2122128,0.0747 -0.1472591,0.08921 -0.274353,0.202126 -0.4115981,0.303062 -0.3871936,0.284741 -0.6594122,0.469393 -0.9044456,0.884108 -0.2716956,0.239699 -0.3181731,0.285587 -0.6034982,0.515806 -0.1132375,0.09137 -0.232255,0.179076 -0.3501233,0.26807 L 7.50714,42.850048 c 0.1164476,-0.04765 0.2367348,-0.09072 0.3736435,-0.120564 0.079007,-0.01721 0.1605574,-0.02276 0.2421485,-0.02646 0.068703,-0.02888 0.1331154,-0.05896 0.1801398,-0.09267 0.1629169,-0.15609 0.5899865,-0.329946 0.901238,-0.410377 0.1530696,-0.08348 0.3186054,-0.148793 0.4773457,-0.224103 1.0317175,-0.08439 0.213097,-0.169788 1.2192905,-0.501625 0.187797,-0.06195 0.394882,-0.06344 0.5896,-0.10543 0.08219,-0.01771 0.159562,-0.04872 0.239475,-0.07328 0.104398,-0.0505 0.202692,-0.112884 0.313241,-0.151766 0.207818,-0.07308 0.420606,-0.137435 0.638244,-0.182966 0.308965,-0.06465 0.662855,-0.04445 0.964313,-0.156965 0.07319,-0.02731 0.125381,-0.08602 0.18816,-0.129071 l 0.517434,-0.189118 c 0.834795,-0.28147 0.21105,-0.09905 1.206996,-0.301163 0.186709,-0.03791 0.36897,-0.09151 0.556458,-0.126233 0.213023,-0.03947 0.431087,-0.05434 0.643588,-0.09598 0.165728,-0.03243 0.326116,-0.08384 0.489106,-0.125757 l 0.598154,-0.108744 c 0.97661,-0.0591 0.29885,0.01117 1.081914,-0.127648 0.189291,-0.03357 0.381421,-0.05306 0.569821,-0.09031 0.215505,-0.0426 0.424507,-0.11006 0.640914,-0.148921 0.767526,-0.137854 0.866216,-0.125764 1.584917,-0.169731 0.287751,-0.04865 0.864204,-0.151203 1.146592,-0.176821 0.25325,-0.02297 0.509488,-0.01202 0.762258,-0.03876 0.263728,-0.02795 0.522143,-0.08683 0.782033,-0.136638 L 13.912556,32.487986 Z m 12.223903,7.392487 c -0.153499,0.02233 -0.306958,0.04225 -0.460776,0.06429 -0.201775,0.01067 -0.404948,0.01081 -0.605637,0.03215 -0.459137,0.04893 -0.905603,0.170043 -1.364683,0.219373 -0.20488,0.02198 -0.413645,0.0073 -0.618999,0.02553 -0.183731,0.01629 -1.147919,0.170101 -1.27328,0.189588 -0.572279,0.03037 -0.716413,0.02276 -1.327269,0.132855 -0.250975,0.04523 -0.494683,0.119234 -0.744615,0.168778 -0.175201,0.03471 -0.353837,0.05419 -0.530266,0.08369 -0.838186,0.140016 -0.396168,0.103766 -1.091534,0.12954 -2.0012,0.350549 1.350115,-0.247345 -1.135902,0.242545 -0.173932,0.03428 -0.353751,0.04225 -0.528128,0.0747 -0.214123,0.03983 -0.422285,0.100722 -0.636105,0.141837 -0.151504,0.02916 -0.309317,0.03165 -0.458637,0.06856 -0.171795,0.04246 -0.333639,0.112137 -0.50033,0.168309 -0.52616,0.171651 -0.223087,0.05846 -0.893755,0.370669 -0.629093,0.212091 -0.374784,0.05 -0.878787,0.136638 -0.427163,0.07341 -0.529396,0.152548 -0.945603,0.332833 -0.148583,0.03855 -0.294042,0.08874 -0.445809,0.115836 -0.15597,0.02788 -0.246612,-0.04324 -0.393956,0.04395 -0.427316,0.252993 -0.538336,0.537207 -1.13216,0.49738 0.005,-0.259842 0.02452,-0.04694 -0.4805532,0.230717 -0.018968,0.01046 -0.045946,-0.01358 -0.066818,-0.0064 -0.2844771,0.09571 -0.5802791,0.263902 -0.8274713,0.409438 0.073224,-0.0985 0.3432395,-0.339718 0.2196955,-0.295495 -0.2623497,0.09392 -0.4470762,0.307493 -0.673521,0.457658 -0.0046,0.0028 -0.018666,0.005 -0.017104,0 0.00452,-0.01437 0.045437,-0.03976 0.028866,-0.03691 -0.094093,0.016 -0.1859661,0.04381 -0.2731514,0.07896 -0.1298666,0.05242 -0.2509806,0.120216 -0.3757837,0.181551 l 1.553378,10.168692 25.5724831,-9.169695 -4.27259,-2.583777 c -0.08458,0.01109 -0.13975,0.01607 -0.296139,0.0421 -0.229248,0.03805 -0.454253,0.09266 -0.68154,0.139006 -0.887435,0.101782 -0.481174,0.03464 -1.420277,0.233079 -0.18338,0.03876 -0.370436,0.06557 -0.548975,0.119149 -0.237134,0.07118 -0.455752,0.187156 -0.69437,0.254358 -0.533407,0.150215 -0.924375,0.172867 -1.471592,0.234501 -0.03109,0.0057 -0.930296,0.172569 -1.103832,0.216536 -0.84687,0.214558 -1.672732,0.516489 -2.554574,0.606109 -0.104684,0.01024 -0.213997,7.11e-4 -0.313777,0.03072 -0.149011,0.04452 -0.2828,0.122571 -0.421219,0.188649 -0.220839,0.105416 -1.051784,0.539761 -1.171182,0.58956 -0.136884,0.05711 -0.291412,0.07309 -0.433512,0.119149 -0.204385,0.06621 -0.403462,0.144952 -0.605102,0.217475 l -0.460774,0.05199 c -0.06705,-0.01358 -0.132757,-0.04836 -0.200989,-0.04068 -0.334709,0.03762 -0.720989,0.331468 -0.964312,0.444422 -0.448794,0.208336 -1.045175,0.406721 -1.518635,0.573486 -1.271323,0.447801 -1.706946,-0.708339 -0.437255,-1.159738 0.426319,-0.151574 0.981767,-0.338864 1.383928,-0.526688 0.463739,-0.216586 0.497303,-0.367306 1.040219,-0.472786 0.227536,-0.04417 0.465115,-0.02126 0.697044,-0.04068 0.08923,-0.0075 0.176762,-0.02646 0.265133,-0.03976 0.07483,-0.03954 0.143704,-0.08975 0.224506,-0.118665 0.190664,-0.06828 0.399324,-0.09451 0.58586,-0.171154 0.156936,-0.06451 0.288182,-0.169382 0.436185,-0.248682 0.132041,-0.07077 0.80127,-0.408577 0.952019,-0.45529 0.218251,-0.06764 0.450072,-0.09432 0.675127,-0.141367 0.829147,-0.07939 1.601547,-0.369105 2.396885,-0.56971 0.304398,-0.07677 0.976712,-0.198492 1.237999,-0.248213 0.498885,-0.05889 0.96752,-0.08881 1.445935,-0.229771 0.160911,-0.04744 0.302426,-0.138246 0.462915,-0.18675 0.611815,-0.184937 1.248687,-0.295345 1.886932,-0.382483 l -2.813828,-1.701561 z"
         id="path3342" />
      <path
         style="display:inline;fill:url(#linearGradient6261);fill-rule:evenodd;stroke:#000000;stroke-width:0.25739098px;stroke-linecap:butt;stroke-linejoin:miter;stroke-opacity:1;fill-opacity:1"
         d="m 58.468219,26.920926 -0.333549,0.252468 c 0.0823,0.01271 0.185323,0.02401 0.30469,0.03357 l 0.02884,-0.286035 z m -1.633559,1.235863 -5.599857,4.237113 c 0.106239,0.0041 0.212957,0.006 0.319124,0.01087 l 0.686882,0.09976 c 0.236571,0.07465 0.480461,0.133661 0.709871,0.2241 0.221269,0.08723 0.419036,0.216126 0.638243,0.307311 0.187808,0.07812 1.369866,0.482514 1.534139,0.541812 0.702385,0.253549 0.643202,0.238715 1.288246,0.514863 0.299535,0.141673 0.754236,0.375036 1.083515,0.453874 0.06594,0.01579 0.133305,0.02596 0.200987,0.03407 l 0.621135,-6.157575 c -0.556846,-0.04678 -0.622046,-0.07777 -1.123604,-0.204716 -0.306244,-0.05257 -0.27848,-0.0482 -0.358681,-0.06146 z m -6.941561,5.252658 -5.808865,4.395026 c 0.185833,-0.0014 0.37169,-1.35e-4 0.557528,-0.0014 1.150578,-0.005 2.300945,-0.0043 3.451536,-0.0021 0.06805,-0.0014 0.136333,-7.11e-4 0.204199,-0.005 0.307045,-0.01671 0.612873,-0.04566 0.91941,-0.06856 0.830116,-0.0014 1.612249,-0.196771 2.394748,-0.416529 0.331857,-0.09319 0.656749,-0.207083 0.993711,-0.28462 1.049026,-0.241378 1.103479,-0.189012 2.199643,-0.223626 0.892393,0.121759 1.781252,0.0239 2.671106,-0.04488 l 0.09889,-0.97867 c -0.281012,-0.04417 -0.536485,-0.0856 -0.619531,-0.106846 -0.36995,-0.09463 -0.802235,-0.315465 -1.148199,-0.479876 -0.589643,-0.254244 -0.532949,-0.239764 -1.190421,-0.477046 -0.474731,-0.171324 -1.244979,-0.420746 -1.701984,-0.611784 -0.156951,-0.06565 -0.294857,-0.162932 -0.45062,-0.230718 -0.146098,-0.06358 -0.301911,-0.108422 -0.452752,-0.16264 -0.188342,-0.02885 -0.375416,-0.06503 -0.565017,-0.08652 -0.258143,-0.02925 -0.521824,-0.02142 -0.777221,-0.06572 -0.554239,-0.09608 -0.731463,-0.130249 -0.776159,-0.148454 z m 6.578611,5.309866 c -0.297952,0.0074 -0.595899,0.02404 -0.893221,0.05483 -0.320249,0.04033 -0.64044,0.07998 -0.960571,0.121034 -0.330804,0.04239 -0.658802,0.107166 -0.992113,0.12954 -0.311482,0.02091 -0.624666,-4.2e-5 -0.937047,0 -0.878329,1.21e-4 -1.756961,7.12e-4 -2.635295,7.12e-4 -0.718251,-7.2e-5 -1.436481,-0.0014 -2.154736,-0.0028 -0.113624,-6.4e-5 -0.227072,4.76e-4 -0.339969,0.01088 -1.281161,0.118652 -2.45536,0.655169 -3.74019,0.764973 -1.395576,0.191046 -0.217867,0.0165 -1.830805,0.303531 -0.01741,0.0028 -0.73236,0.123111 -1.211272,0.205185 l -6.222601,4.708481 21.288128,7.947064 1.436318,-14.242686 c -0.269,-0.005 -0.537887,-0.0077 -0.806626,-7.12e-4 z"
         id="path3344" />
    </g>
  </g>
</svg>
